<svg version="1.1" id="Layer_1" xmlns="http://www.w3.org/2000/svg" xmlns:xlink="http://www.w3.org/1999/xlink" x="0px" y="0px"
	 width="100%" viewBox="0 0 320 320" enable-background="new 0 0 320 320" xml:space="preserve">
<path fill="#47704C" opacity="1.000000" stroke="none" 
	d="
M1.000000,116.000000 
	C1.000000,77.348244 1.000000,39.196480 1.000000,1.022361 
	C107.610092,1.022361 214.220200,1.022361 320.915161,1.022361 
	C320.915161,107.568367 320.915161,214.136826 320.915161,320.852661 
	C214.333481,320.852661 107.666771,320.852661 1.000000,320.852661 
	C1.000000,252.779922 1.000000,184.639969 1.000000,116.000000 
M90.753113,34.206249 
	C74.371277,43.552162 60.165020,55.476250 48.304264,70.152107 
	C20.485054,104.574074 11.773923,144.171616 18.756784,187.066711 
	C24.396732,221.712402 41.957451,250.116928 69.020073,272.655426 
	C101.581238,299.773285 139.271835,308.718658 180.635544,304.300476 
	C200.111053,302.220306 218.235458,295.550568 234.992249,285.439880 
	C261.115662,269.677582 280.591888,247.931381 293.182739,220.061203 
	C302.491180,199.456802 305.759979,177.928055 305.145569,155.350159 
	C303.989990,112.889137 286.448181,78.333839 254.985886,50.970512 
	C227.849716,27.369709 195.906021,16.196049 159.434753,16.713318 
	C135.090729,17.058590 112.726768,22.778416 90.753113,34.206249 
z"/>
<path fill="#329B48" opacity="1.000000" stroke="none" 
	d="
M91.076935,34.033039 
	C112.726768,22.778416 135.090729,17.058590 159.434753,16.713318 
	C195.906021,16.196049 227.849716,27.369709 254.985886,50.970512 
	C286.448181,78.333839 303.989990,112.889137 305.145569,155.350159 
	C305.759979,177.928055 302.491180,199.456802 293.182739,220.061203 
	C280.591888,247.931381 261.115662,269.677582 234.992249,285.439880 
	C218.235458,295.550568 200.111053,302.220306 180.635544,304.300476 
	C139.271835,308.718658 101.581238,299.773285 69.020073,272.655426 
	C41.957451,250.116928 24.396732,221.712402 18.756784,187.066711 
	C11.773923,144.171616 20.485054,104.574074 48.304264,70.152107 
	C60.165020,55.476250 74.371277,43.552162 91.076935,34.033039 
M237.294312,276.817688 
	C249.148560,268.924286 259.756287,259.548950 268.576385,248.423370 
	C291.569519,219.420059 302.272491,186.506989 299.051331,149.352997 
	C295.667511,110.322899 278.661041,78.235313 248.533417,53.611408 
	C219.886932,30.198082 186.720612,19.804420 149.550934,22.924530 
	C110.657104,26.189365 78.700165,43.154892 54.047131,72.935158 
	C30.592009,101.268372 20.054579,134.213867 22.895885,171.256271 
	C25.660109,207.293716 40.184498,237.531967 66.594124,262.086090 
	C96.073708,289.494476 130.874954,301.760345 171.115356,299.134491 
	C194.990784,297.576508 216.618637,289.867188 237.294312,276.817688 
z"/>
<path fill="#47704C" opacity="1.000000" stroke="none" 
	d="
M236.986404,277.005035 
	C216.618637,289.867188 194.990784,297.576508 171.115356,299.134491 
	C130.874954,301.760345 96.073708,289.494476 66.594124,262.086090 
	C40.184498,237.531967 25.660109,207.293716 22.895885,171.256271 
	C20.054579,134.213867 30.592009,101.268372 54.047131,72.935158 
	C78.700165,43.154892 110.657104,26.189365 149.550934,22.924530 
	C186.720612,19.804420 219.886932,30.198082 248.533417,53.611408 
	C278.661041,78.235313 295.667511,110.322899 299.051331,149.352997 
	C302.272491,186.506989 291.569519,219.420059 268.576385,248.423370 
	C259.756287,259.548950 249.148560,268.924286 236.986404,277.005035 
M198.094711,268.105316 
	C198.094711,268.105316 198.235138,268.278809 197.979431,268.875000 
	C197.703705,269.290253 197.365463,269.677338 197.163574,270.125793 
	C196.472885,271.660065 195.830093,273.215881 195.169022,274.763489 
	C196.738266,275.370209 198.344620,275.897797 199.864197,276.610413 
	C200.945374,277.117401 202.223145,277.650177 202.870392,278.558350 
	C205.312042,281.984283 208.393845,280.875275 209.884354,278.560974 
	C211.684326,275.766205 213.009857,273.775635 216.714218,274.394501 
	C217.234726,274.481476 218.675705,272.199432 218.752747,270.955902 
	C218.837173,269.592865 217.877853,268.144196 217.296402,266.765289 
	C216.092560,263.910431 213.911179,261.042084 217.692566,258.353699 
	C217.777176,258.293549 216.537964,255.584824 216.032608,255.623703 
	C214.262650,255.759888 212.500839,256.451904 210.813278,257.126434 
	C205.253876,259.348511 199.873642,262.177704 194.145660,263.770935 
	C189.221558,265.140564 184.101852,266.163025 179.164047,267.242798 
	C159.433731,271.557373 139.865250,269.474213 121.110008,261.551422 
	C115.286835,259.091522 109.559090,256.402313 103.702118,254.029190 
	C102.773369,253.652878 101.390526,254.397308 100.217628,254.623596 
	C100.631653,255.581192 100.872978,256.672485 101.491638,257.471680 
	C103.459030,260.013214 105.566940,262.446014 107.620560,264.920807 
	C105.973495,265.407501 104.914658,264.870514 103.791634,264.601593 
	C102.649780,264.328094 101.444656,264.318848 100.267242,264.193878 
	C100.511147,265.397583 100.364754,266.985565 101.086609,267.718689 
	C102.296486,268.947449 104.017395,270.288879 105.599991,270.390747 
	C107.986404,270.544373 110.457466,269.754974 112.858788,269.216034 
	C116.296700,268.444458 117.835419,269.618073 116.704803,273.084900 
	C115.840019,275.736572 114.652725,278.819305 117.896805,279.881317 
	C119.343468,280.354858 121.797363,277.751465 124.252861,276.267303 
	C125.536835,276.947083 127.688850,278.086426 129.256348,278.916321 
	C129.552567,281.086334 129.514801,284.263367 130.081665,284.375214 
	C132.795013,284.910461 135.672165,284.615326 139.967941,284.615326 
	C144.778290,288.121918 145.349838,287.807465 147.327087,280.096832 
	C147.854645,278.039429 149.035767,275.097595 150.594345,274.572357 
	C153.991425,273.427673 157.824173,273.575806 161.478897,273.195618 
	C159.294266,274.829163 156.862930,275.339722 154.654236,276.341217 
	C153.176620,277.011230 152.015320,278.378876 150.712479,279.434357 
	C152.307495,280.597565 153.746887,282.253418 155.531296,282.817047 
	C158.813599,283.853821 162.539093,283.696899 165.639267,285.048279 
	C169.593430,286.771881 172.534485,287.415741 173.403610,284.228760 
	C177.428864,282.364868 181.101654,281.764038 182.441177,279.670380 
	C183.387878,278.190704 181.173645,274.688690 180.374023,272.100800 
	C183.937698,271.281586 185.799423,273.461243 186.624725,277.313354 
	C187.255676,280.258392 187.978287,283.824066 191.991440,282.784515 
	C192.858459,282.559937 193.372925,278.141449 192.844818,275.944366 
	C191.690247,271.140808 192.914047,268.485474 198.094711,268.105316 
M55.803993,113.008545 
	C60.002632,113.430626 62.750244,111.358986 64.725113,107.882019 
	C66.039375,105.568130 67.339241,103.236893 68.816078,101.027412 
	C70.012497,99.237465 72.918510,96.936691 72.508018,96.059158 
	C71.557243,94.026604 69.067429,92.706215 67.177559,91.125870 
	C66.669876,90.701340 65.889671,90.500336 65.558563,89.987534 
	C64.777985,88.778610 64.192535,87.443687 63.528156,86.159737 
	C64.965965,86.015938 66.554527,85.401848 67.816566,85.806389 
	C74.809906,88.048134 78.796432,87.507347 82.199608,83.077682 
	C83.455200,81.443367 84.080696,79.324974 84.981628,77.452187 
	C87.166962,77.606918 89.279999,77.756531 91.625267,77.922592 
	C89.342201,72.976402 87.423355,68.819290 85.456528,64.558212 
	C90.465622,59.550613 92.150795,64.428680 94.866402,67.377625 
	C96.016968,68.627068 98.447601,68.697731 100.296455,69.304146 
	C100.080048,67.685394 100.102402,65.983589 99.576767,64.472397 
	C99.098274,63.096725 97.619827,62.015423 97.323883,60.644268 
	C97.008438,59.182827 97.563171,57.533562 97.737999,55.966297 
	C98.198883,55.864262 98.659767,55.762226 99.120651,55.660191 
	C103.932632,61.089691 109.630013,63.482819 116.633919,61.170593 
	C120.800316,59.795120 124.674797,57.394608 124.980453,52.886967 
	C125.135201,50.604694 122.356308,48.123497 120.605713,45.241577 
	C123.388222,44.523201 126.516586,43.471935 129.730881,42.952694 
	C133.092636,42.409637 133.971771,44.173164 132.587143,47.114491 
	C130.743759,51.030396 131.463608,53.027359 135.785736,53.486744 
	C139.360657,53.866711 143.049911,52.993610 146.686050,53.019543 
	C151.412506,53.053242 152.417099,50.577160 151.595413,46.560242 
	C151.361877,45.418476 150.700531,44.168423 150.970718,43.166302 
	C151.355530,41.739040 152.419052,40.494770 153.192657,39.172333 
	C154.735840,40.248974 156.597229,41.079880 157.694534,42.500843 
	C158.286835,43.267868 157.118439,45.222313 157.551270,46.324078 
	C158.243225,48.085476 159.606842,49.583012 160.686508,51.192101 
	C161.452744,49.771744 162.447006,48.425587 162.938339,46.915771 
	C164.003647,43.642117 164.811752,40.284763 165.725021,36.961636 
	C166.193695,37.061092 166.662369,37.160545 167.131042,37.260002 
	C164.878845,30.625826 159.694656,28.779167 153.390274,29.108509 
	C149.763412,29.297977 146.271515,30.140636 144.419098,34.063999 
	C147.825211,33.702644 151.231323,33.341290 154.637421,32.979935 
	C154.695190,33.397465 154.752960,33.814991 154.810730,34.232521 
	C153.770645,34.503338 152.737747,34.806473 151.689346,35.040020 
	C139.886261,37.669315 127.453102,37.473690 116.304939,43.049984 
	C105.944695,48.232166 94.587372,51.371895 85.398811,58.955814 
	C71.535522,70.398102 59.628845,83.430885 50.993988,99.293098 
	C48.735310,103.442291 46.263184,107.495781 44.300087,111.781479 
	C38.815075,123.755974 36.583046,136.569382 35.301506,149.552917 
	C35.111683,151.476028 35.640854,154.585587 36.879234,155.275116 
	C38.779369,156.333130 41.893150,156.486786 43.890934,155.627319 
	C45.137093,155.091202 45.924614,151.923218 45.745502,150.048340 
	C45.535988,147.855255 44.051418,145.783997 43.045376,143.489731 
	C43.634712,143.422485 44.274479,143.259171 44.903538,143.293274 
	C47.680290,143.443848 51.668922,145.638657 52.424953,141.365906 
	C53.191578,137.033249 48.607086,138.360382 46.218330,137.613388 
	C43.449421,136.747513 40.275543,136.393509 41.532711,132.242844 
	C42.786957,128.101837 44.029819,123.928650 45.750195,119.975189 
	C46.261753,118.799622 48.367809,118.317909 49.743256,117.518272 
	C49.988781,117.962029 50.234306,118.405785 50.479832,118.849541 
	C49.069427,120.647354 47.100807,122.251556 46.392780,124.292976 
	C45.546490,126.733055 45.666237,129.547729 45.681675,132.198318 
	C45.683662,132.539200 48.357147,133.318146 48.460857,133.135925 
	C49.764858,130.844788 50.793442,128.399323 51.954517,126.023651 
	C52.898605,124.091934 53.436974,121.463928 55.004200,120.423615 
	C60.837467,116.551552 60.973713,116.447273 55.009003,113.000740 
	C55.009003,113.000740 54.990578,113.024780 55.803993,113.008545 
M144.332077,58.848846 
	C143.336243,58.919216 142.316238,58.874153 141.348099,59.076828 
	C116.407974,64.297920 95.632950,76.416054 79.891731,96.629707 
	C61.015209,120.869469 53.725567,148.157074 58.976921,178.570068 
	C63.961552,207.438324 78.594757,230.447952 102.738510,246.752930 
	C125.706284,262.263702 151.241135,268.085815 178.850723,263.023499 
	C211.734390,256.994141 236.358719,239.139114 252.311188,210.015182 
	C263.879211,188.895752 267.542725,166.050430 262.977264,142.177322 
	C257.825836,115.240196 244.248032,93.291496 222.199112,77.206802 
	C199.281097,60.488121 173.316940,54.391209 144.332077,58.848846 
M224.377365,68.038559 
	C227.424103,74.482094 228.586426,74.994011 234.594788,72.895660 
	C235.370544,72.624725 236.754440,72.752495 237.204346,73.266495 
	C237.659653,73.786697 237.443161,75.045242 237.257080,75.924515 
	C237.129791,76.525963 236.226166,77.036072 236.233444,77.579453 
	C236.255829,79.249748 236.549591,80.916405 236.737854,82.584480 
	C238.060303,82.045982 239.546616,81.730629 240.662643,80.911041 
	C241.981186,79.942741 242.845779,78.356308 244.164322,77.388016 
	C245.037979,76.746429 246.363312,76.719894 247.486450,76.418037 
	C247.358170,77.721779 247.627975,79.269638 247.011932,80.274292 
	C245.988251,81.943733 243.970474,83.069000 243.177994,84.794014 
	C242.548950,86.163277 243.126663,88.086929 243.168579,89.764427 
	C244.461060,89.314384 245.885086,89.073418 247.013885,88.363205 
	C248.544312,87.400322 249.719528,85.834900 251.296509,84.997711 
	C252.299179,84.465401 253.754425,84.785545 255.006714,84.723427 
	C253.701553,87.015320 252.132401,87.903275 250.737442,89.010666 
	C248.046280,91.147064 247.039474,94.074158 249.073151,96.881287 
	C250.051529,98.231728 252.538696,98.489082 254.342621,99.241432 
	C254.376236,97.508492 254.477432,95.772911 254.410004,94.043907 
	C254.383331,93.360146 253.981522,92.691010 253.750534,92.015213 
	C254.041122,91.638336 254.331711,91.261459 254.622299,90.884583 
	C257.116089,92.156456 259.776184,93.203018 261.998047,94.843269 
	C262.630066,95.309830 262.564331,98.056305 261.836273,98.816734 
	C256.609406,104.275826 256.595764,104.946747 262.737640,109.640152 
	C263.215088,110.005005 263.461670,110.671989 263.401093,110.581856 
	C262.183350,113.528191 261.193909,115.922089 259.970032,118.883278 
	C265.311768,117.774704 269.191040,116.969643 273.482361,116.079071 
	C274.282501,117.604507 275.218689,119.389275 276.154846,121.174049 
	C275.567810,120.966850 274.980774,120.759651 274.393738,120.552460 
	C273.068970,122.088936 270.495972,123.771248 270.655243,125.134338 
	C271.119110,129.104538 272.675903,132.947021 273.828369,136.923157 
	C273.207123,137.233536 272.463684,137.391098 272.056152,137.848175 
	C270.768677,139.292267 269.606995,140.848526 268.396637,142.361389 
	C270.116058,142.786407 271.819672,143.475479 273.558319,143.579666 
	C276.840271,143.776352 280.142395,143.636459 284.284851,143.636459 
	C284.270966,143.760040 284.752045,142.479080 284.484528,141.380356 
	C282.471771,133.113113 281.279297,124.471474 277.995026,116.725029 
	C271.269623,100.862000 263.357361,85.460983 250.560150,73.393494 
	C244.406326,67.590584 237.755783,62.308033 231.211090,56.934887 
	C230.471329,56.327564 228.062302,56.306969 227.938187,56.617733 
	C226.541382,60.115025 225.440445,63.730488 224.377365,68.038559 
M175.962112,39.406853 
	C179.107727,40.335484 182.253357,41.264111 185.398972,42.192738 
	C183.895874,43.046432 182.480026,42.738747 181.291122,43.126625 
	C179.897812,43.581181 178.701981,44.641033 177.420502,45.438332 
	C178.424377,46.601772 179.238052,48.048599 180.468506,48.874462 
	C183.889297,51.170464 187.557877,53.096592 190.986053,55.382545 
	C193.896622,57.323341 195.924698,57.184166 196.991196,53.564747 
	C197.413116,52.132820 197.465118,50.541759 198.122986,49.245075 
	C198.666168,48.174427 199.853622,47.430649 200.755585,46.542019 
	C201.158401,47.815128 201.934113,49.108624 201.865921,50.355976 
	C201.787643,51.787552 200.518219,53.195080 200.570969,54.582462 
	C200.638718,56.364292 201.507492,58.115673 202.031189,59.880165 
	C203.240616,58.833462 204.708694,57.968426 205.600540,56.698654 
	C207.038971,54.650684 208.097748,52.336044 209.392044,49.998287 
	C214.390579,54.304844 206.184555,59.417412 212.333435,63.110619 
	C215.908417,65.257858 218.447922,69.129074 221.453354,72.224564 
	C222.003906,71.758438 222.554459,71.292320 223.105011,70.826202 
	C221.188141,67.172012 219.271271,63.517818 217.895447,60.895069 
	C220.261353,58.704094 223.202240,57.279053 223.483444,55.445988 
	C224.043823,51.793205 220.635284,50.814171 217.615356,49.988396 
	C216.250793,49.615273 214.866821,48.919270 213.771683,48.026314 
	C210.024414,44.970901 206.418976,42.342979 201.163910,41.642017 
	C193.961456,40.681293 186.967957,38.209396 179.845993,36.552483 
	C177.961502,36.114056 175.202652,34.996532 175.962112,39.406853 
M39.489185,201.998947 
	C44.439659,196.246307 48.973995,198.902786 54.020195,204.272949 
	C53.296112,199.541595 51.760536,196.077789 52.645786,193.420441 
	C53.508602,190.830444 56.847355,189.065292 60.023140,186.064987 
	C55.425354,186.064987 52.332458,186.064987 49.424664,186.064987 
	C48.254658,183.150513 47.211666,180.552444 45.848667,177.157242 
	C44.023235,180.760971 43.304745,184.429611 41.127975,185.827576 
	C39.057789,187.157104 35.463722,186.113815 32.539680,186.113815 
	C32.483070,186.629929 32.426460,187.146042 32.369850,187.662155 
	C34.773006,189.534180 37.176159,191.406219 39.674946,193.352737 
	C38.852451,195.765945 37.935482,198.031601 37.386417,200.383163 
	C37.258392,200.931458 38.380207,201.771576 39.489185,201.998947 
M262.243744,237.513458 
	C264.572723,234.999084 266.901703,232.484711 269.230682,229.970352 
	C269.178223,229.549866 269.125732,229.129395 269.073273,228.708908 
	C261.145264,231.140137 258.137085,226.642456 256.578918,219.602997 
	C254.815094,223.299057 254.180511,227.014526 252.018646,228.485764 
	C249.871292,229.947113 246.187607,229.150909 243.177658,229.344742 
	C242.857834,229.684982 242.537994,230.025223 242.218170,230.365463 
	C250.105377,233.472534 250.601944,239.188873 248.224152,246.560135 
	C253.959839,238.786530 259.207123,241.203659 264.831207,245.483994 
	C264.104553,243.036285 263.377869,240.588562 262.243744,237.513458 
M288.062195,185.005020 
	C280.444366,187.069366 280.754578,179.711502 277.859680,175.345627 
	C276.509888,179.088089 275.481293,181.939926 274.263489,185.316391 
	C271.250031,185.316391 268.244598,185.316391 265.239197,185.316391 
	C264.915192,185.637085 264.591187,185.957794 264.267181,186.278488 
	C271.655151,189.424240 273.250519,194.596786 270.132324,201.968582 
	C275.562988,194.595154 280.898682,197.182159 286.493835,201.221588 
	C284.342255,195.438065 282.959625,190.503265 289.676056,187.643112 
	C289.766174,187.604736 289.159393,185.929855 288.062195,185.005020 
M67.144638,223.471222 
	C66.823410,222.684387 66.502190,221.897537 65.507729,219.461594 
	C64.101898,227.702286 60.896465,232.098770 52.613701,229.845047 
	C52.727669,230.295486 52.841637,230.745926 52.955605,231.196365 
	C55.254158,233.094070 57.552708,234.991776 59.807266,236.853149 
	C58.898514,239.821838 58.023266,242.681046 57.148022,245.540268 
	C57.432419,245.787888 57.716820,246.035522 58.001217,246.283142 
	C60.746181,244.520996 63.491146,242.758850 66.007851,241.143234 
	C68.635590,242.931122 70.942513,244.500732 73.249435,246.070358 
	C73.677353,245.956131 74.105270,245.841919 74.533188,245.727707 
	C70.895706,239.048859 72.463829,234.125748 79.687714,231.110199 
	C79.341515,230.816833 78.995323,230.523483 78.649124,230.230133 
	C75.610672,230.093185 72.572212,229.956238 69.476051,229.816681 
	C68.812065,227.813889 68.200333,225.968704 67.144638,223.471222 
z"/>
<path fill="#ED1D24" opacity="1.000000" stroke="none" 
	d="
M144.722473,58.633080 
	C173.316940,54.391209 199.281097,60.488121 222.199112,77.206802 
	C244.248032,93.291496 257.825836,115.240196 262.977264,142.177322 
	C267.542725,166.050430 263.879211,188.895752 252.311188,210.015182 
	C236.358719,239.139114 211.734390,256.994141 178.850723,263.023499 
	C151.241135,268.085815 125.706284,262.263702 102.738510,246.752930 
	C78.594757,230.447952 63.961552,207.438324 58.976921,178.570068 
	C53.725567,148.157074 61.015209,120.869469 79.891731,96.629707 
	C95.632950,76.416054 116.407974,64.297920 141.348099,59.076828 
	C142.316238,58.874153 143.336243,58.919216 144.722473,58.633080 
M194.551941,115.161369 
	C191.800980,114.744873 189.061218,114.206825 186.295364,113.952019 
	C184.244446,113.763084 180.823776,113.172440 180.301422,114.079063 
	C176.155777,121.274361 168.842972,120.585808 162.552032,121.025307 
	C155.458405,121.520882 149.478180,118.586678 150.300186,109.817749 
	C150.590714,106.718689 150.291367,103.441414 149.588943,100.400841 
	C148.521118,95.778511 145.958847,95.373604 142.337204,98.324997 
	C141.196518,99.254578 138.472031,99.524948 137.285904,98.787903 
	C135.818787,97.876251 134.912781,95.702164 134.274078,93.893509 
	C133.034988,90.384727 130.740372,88.964027 127.349457,90.254578 
	C124.725578,91.253181 122.938652,91.217400 120.665504,89.176117 
	C118.891670,87.583206 115.010933,86.823929 115.196884,90.597076 
	C115.386711,94.448601 113.272758,96.288849 111.524590,98.775421 
	C108.061699,103.701004 108.607399,105.745461 113.916306,108.552147 
	C117.443596,110.416946 121.109047,112.095459 124.370796,114.351593 
	C125.731728,115.292946 126.455498,117.445183 126.960976,119.193695 
	C127.168686,119.912231 125.998123,121.843796 125.519463,121.821625 
	C120.023201,121.566971 117.049606,125.160301 114.398811,129.023239 
	C112.522774,131.757126 109.706299,134.967056 109.986557,137.688843 
	C110.194328,139.706589 114.476280,141.960571 117.341942,142.925064 
	C125.714088,145.742920 126.921242,147.899506 122.583595,155.431519 
	C120.271988,159.445465 119.724670,163.503983 122.204353,167.241486 
	C127.933533,175.876801 128.938843,185.345627 129.006104,195.383636 
	C129.033829,199.523773 131.296173,203.835907 133.301346,207.673111 
	C133.991531,208.993866 137.061157,209.825394 138.914810,209.633591 
	C143.351593,209.174500 147.686157,207.787842 152.117508,207.181274 
	C153.562317,206.983521 155.349121,207.760635 156.685837,208.574326 
	C161.216339,211.332123 162.343323,210.891479 163.763916,205.672470 
	C164.273163,203.801636 165.473480,200.400635 165.843796,200.469406 
	C170.942581,201.416138 174.799240,197.187363 178.620361,196.918716 
	C184.088242,196.534332 183.296539,193.944504 184.050034,190.856171 
	C184.592865,188.631332 185.673218,184.947281 186.863388,184.803268 
	C189.308472,184.507401 193.117722,185.375977 194.335907,187.155014 
	C196.870438,190.856369 198.641663,195.326538 199.713089,199.727493 
	C201.438965,206.816620 202.300064,214.113647 203.628754,221.303925 
	C203.967728,223.138260 204.691269,224.901535 205.515503,227.608505 
	C207.509048,224.213409 208.388000,220.727371 210.480881,219.689697 
	C212.752319,218.563492 216.153610,219.716080 220.086441,219.930908 
	C219.610138,215.866470 219.239731,212.315765 218.765381,208.778992 
	C218.369522,205.827301 217.078613,202.770981 217.516922,199.969543 
	C219.890686,184.798203 211.008041,172.007980 208.875275,157.812775 
	C208.669113,156.440598 206.187729,155.410263 204.762512,154.221252 
	C203.867355,155.645401 202.757828,156.980042 202.118439,158.511017 
	C200.407547,162.607651 199.418381,167.100220 197.169647,170.852463 
	C194.680374,175.006058 191.221344,174.922348 188.388763,170.916763 
	C186.004562,167.545258 184.111115,163.772644 182.386810,160.000946 
	C179.633286,153.977982 181.775375,149.027237 187.632645,145.885971 
	C193.593414,142.689224 199.497971,139.327011 205.084625,135.532928 
	C206.614487,134.493942 206.803528,131.586731 207.809662,129.641220 
	C208.861816,127.606697 210.013641,125.588081 211.400818,123.776039 
	C212.208099,122.721489 213.563004,122.086159 214.929581,121.070389 
	C209.085266,115.087212 203.183121,111.750168 194.551941,115.161369 
z"/>
<path fill="#27A649" opacity="1.000000" stroke="none" 
	d="
M55.032497,112.981262 
	C60.973713,116.447273 60.837467,116.551552 55.004200,120.423615 
	C53.436974,121.463928 52.898605,124.091934 51.954517,126.023651 
	C50.793442,128.399323 49.764858,130.844788 48.460857,133.135925 
	C48.357147,133.318146 45.683662,132.539200 45.681675,132.198318 
	C45.666237,129.547729 45.546490,126.733055 46.392780,124.292976 
	C47.100807,122.251556 49.069427,120.647354 50.479832,118.849541 
	C50.234306,118.405785 49.988781,117.962029 49.743256,117.518272 
	C48.367809,118.317909 46.261753,118.799622 45.750195,119.975189 
	C44.029819,123.928650 42.786957,128.101837 41.532711,132.242844 
	C40.275543,136.393509 43.449421,136.747513 46.218330,137.613388 
	C48.607086,138.360382 53.191578,137.033249 52.424953,141.365906 
	C51.668922,145.638657 47.680290,143.443848 44.903538,143.293274 
	C44.274479,143.259171 43.634712,143.422485 43.045376,143.489731 
	C44.051418,145.783997 45.535988,147.855255 45.745502,150.048340 
	C45.924614,151.923218 45.137093,155.091202 43.890934,155.627319 
	C41.893150,156.486786 38.779369,156.333130 36.879234,155.275116 
	C35.640854,154.585587 35.111683,151.476028 35.301506,149.552917 
	C36.583046,136.569382 38.815075,123.755974 44.300087,111.781479 
	C46.263184,107.495781 48.735310,103.442291 50.993988,99.293098 
	C59.628845,83.430885 71.535522,70.398102 85.398811,58.955814 
	C94.587372,51.371895 105.944695,48.232166 116.304939,43.049984 
	C127.453102,37.473690 139.886261,37.669315 151.689346,35.040020 
	C152.737747,34.806473 153.770645,34.503338 154.810730,34.232521 
	C154.752960,33.814991 154.695190,33.397465 154.637421,32.979935 
	C151.231323,33.341290 147.825211,33.702644 144.419098,34.063999 
	C146.271515,30.140636 149.763412,29.297977 153.390274,29.108509 
	C159.694656,28.779167 164.878845,30.625826 167.131042,37.260002 
	C166.662369,37.160545 166.193695,37.061092 165.725021,36.961636 
	C164.811752,40.284763 164.003647,43.642117 162.938339,46.915771 
	C162.447006,48.425587 161.452744,49.771744 160.686508,51.192101 
	C159.606842,49.583012 158.243225,48.085476 157.551270,46.324078 
	C157.118439,45.222313 158.286835,43.267868 157.694534,42.500843 
	C156.597229,41.079880 154.735840,40.248974 153.192657,39.172333 
	C152.419052,40.494770 151.355530,41.739040 150.970718,43.166302 
	C150.700531,44.168423 151.361877,45.418476 151.595413,46.560242 
	C152.417099,50.577160 151.412506,53.053242 146.686050,53.019543 
	C143.049911,52.993610 139.360657,53.866711 135.785736,53.486744 
	C131.463608,53.027359 130.743759,51.030396 132.587143,47.114491 
	C133.971771,44.173164 133.092636,42.409637 129.730881,42.952694 
	C126.516586,43.471935 123.388222,44.523201 120.605713,45.241577 
	C122.356308,48.123497 125.135201,50.604694 124.980453,52.886967 
	C124.674797,57.394608 120.800316,59.795120 116.633919,61.170593 
	C109.630013,63.482819 103.932632,61.089691 99.120651,55.660191 
	C98.659767,55.762226 98.198883,55.864262 97.737999,55.966297 
	C97.563171,57.533562 97.008438,59.182827 97.323883,60.644268 
	C97.619827,62.015423 99.098274,63.096725 99.576767,64.472397 
	C100.102402,65.983589 100.080048,67.685394 100.296448,69.304146 
	C98.447601,68.697731 96.016968,68.627068 94.866402,67.377625 
	C92.150795,64.428680 90.465622,59.550613 85.456528,64.558212 
	C87.423355,68.819290 89.342201,72.976402 91.625267,77.922592 
	C89.279999,77.756531 87.166962,77.606918 84.981628,77.452187 
	C84.080696,79.324974 83.455200,81.443367 82.199608,83.077682 
	C78.796432,87.507347 74.809906,88.048134 67.816566,85.806389 
	C66.554527,85.401848 64.965965,86.015938 63.528156,86.159737 
	C64.192535,87.443687 64.777985,88.778610 65.558563,89.987534 
	C65.889671,90.500336 66.669876,90.701340 67.177559,91.125870 
	C69.067429,92.706215 71.557243,94.026604 72.508018,96.059158 
	C72.918510,96.936691 70.012497,99.237465 68.816078,101.027412 
	C67.339241,103.236893 66.039375,105.568130 64.725113,107.882019 
	C62.750244,111.358986 60.002632,113.430626 55.327057,112.711456 
	C55.231846,111.431931 55.481457,109.678734 56.015881,109.587128 
	C60.987705,108.734886 62.092464,104.250397 64.340981,100.927032 
	C65.034912,99.901375 65.030807,98.309540 65.024422,96.978493 
	C65.023048,96.692001 63.095387,96.019768 62.968502,96.193268 
	C62.173969,97.279678 61.187862,98.525063 61.103691,99.774330 
	C60.875607,103.159538 59.805248,105.291603 56.108536,106.137741 
	C53.780254,106.670670 51.732689,108.430008 48.283215,110.349052 
	C51.497185,111.602493 53.264843,112.291878 55.032497,112.981262 
z"/>
<path fill="#2CA148" opacity="1.000000" stroke="none" 
	d="
M197.953079,267.932800 
	C192.914047,268.485474 191.690247,271.140808 192.844818,275.944366 
	C193.372925,278.141449 192.858459,282.559937 191.991440,282.784515 
	C187.978287,283.824066 187.255676,280.258392 186.624725,277.313354 
	C185.799423,273.461243 183.937698,271.281586 180.374023,272.100800 
	C181.173645,274.688690 183.387878,278.190704 182.441177,279.670380 
	C181.101654,281.764038 177.428864,282.364868 173.403610,284.228760 
	C172.534485,287.415741 169.593430,286.771881 165.639267,285.048279 
	C162.539093,283.696899 158.813599,283.853821 155.531296,282.817047 
	C153.746887,282.253418 152.307495,280.597565 150.712479,279.434357 
	C152.015320,278.378876 153.176620,277.011230 154.654236,276.341217 
	C156.862930,275.339722 159.294266,274.829163 161.478897,273.195618 
	C157.824173,273.575806 153.991425,273.427673 150.594345,274.572357 
	C149.035767,275.097595 147.854645,278.039429 147.327087,280.096832 
	C145.349838,287.807465 144.778290,288.121918 139.967941,284.615326 
	C135.672165,284.615326 132.795013,284.910461 130.081665,284.375214 
	C129.514801,284.263367 129.552567,281.086334 129.256348,278.916321 
	C127.688850,278.086426 125.536835,276.947083 124.252861,276.267303 
	C121.797363,277.751465 119.343468,280.354858 117.896805,279.881317 
	C114.652725,278.819305 115.840019,275.736572 116.704803,273.084900 
	C117.835419,269.618073 116.296700,268.444458 112.858788,269.216034 
	C110.457466,269.754974 107.986404,270.544373 105.599991,270.390747 
	C104.017395,270.288879 102.296486,268.947449 101.086609,267.718689 
	C100.364754,266.985565 100.511147,265.397583 100.267242,264.193878 
	C101.444656,264.318848 102.649780,264.328094 103.791634,264.601593 
	C104.914658,264.870514 105.973495,265.407501 107.620560,264.920807 
	C105.566940,262.446014 103.459030,260.013214 101.491638,257.471680 
	C100.872978,256.672485 100.631653,255.581192 100.217628,254.623596 
	C101.390526,254.397308 102.773369,253.652878 103.702118,254.029190 
	C109.559090,256.402313 115.286835,259.091522 121.110008,261.551422 
	C139.865250,269.474213 159.433731,271.557373 179.164047,267.242798 
	C184.101852,266.163025 189.221558,265.140564 194.145660,263.770935 
	C199.873642,262.177704 205.253876,259.348511 210.813278,257.126434 
	C212.500839,256.451904 214.262650,255.759888 216.032608,255.623703 
	C216.537964,255.584824 217.777176,258.293549 217.692566,258.353699 
	C213.911179,261.042084 216.092560,263.910431 217.296402,266.765289 
	C217.877853,268.144196 218.837173,269.592865 218.752747,270.955902 
	C218.675705,272.199432 217.234726,274.481476 216.714218,274.394501 
	C213.009857,273.775635 211.684326,275.766205 209.884354,278.560974 
	C208.393845,280.875275 205.312042,281.984283 202.870392,278.558350 
	C202.223145,277.650177 200.945374,277.117401 199.864197,276.610413 
	C198.344620,275.897797 196.738266,275.370209 195.169022,274.763489 
	C195.830093,273.215881 196.472885,271.660065 197.163574,270.125793 
	C197.365463,269.677338 197.703705,269.290253 198.325714,268.511200 
	C199.217331,267.855652 199.762634,267.563934 200.307953,267.272186 
	C200.191956,267.090851 200.075958,266.909515 199.959961,266.728149 
	C199.291000,267.129700 198.622040,267.531250 197.953079,267.932800 
z"/>
<path fill="#27A649" opacity="1.000000" stroke="none" 
	d="
M224.318695,67.676384 
	C225.440445,63.730488 226.541382,60.115025 227.938187,56.617733 
	C228.062302,56.306969 230.471329,56.327564 231.211090,56.934887 
	C237.755783,62.308033 244.406326,67.590584 250.560150,73.393494 
	C263.357361,85.460983 271.269623,100.862000 277.995026,116.725029 
	C281.279297,124.471474 282.471771,133.113113 284.484528,141.380356 
	C284.752045,142.479080 284.270966,143.760040 284.284851,143.636459 
	C280.142395,143.636459 276.840271,143.776352 273.558319,143.579666 
	C271.819672,143.475479 270.116058,142.786407 268.396637,142.361389 
	C269.606995,140.848526 270.768677,139.292267 272.056152,137.848175 
	C272.463684,137.391098 273.207123,137.233536 273.828369,136.923157 
	C272.675903,132.947021 271.119110,129.104538 270.655243,125.134338 
	C270.495972,123.771248 273.068970,122.088936 274.393738,120.552460 
	C274.980774,120.759651 275.567810,120.966850 276.154846,121.174049 
	C275.218689,119.389275 274.282501,117.604507 273.482361,116.079071 
	C269.191040,116.969643 265.311768,117.774704 259.970032,118.883278 
	C261.193909,115.922089 262.183350,113.528191 263.401093,110.581856 
	C263.461670,110.671989 263.215088,110.005005 262.737640,109.640152 
	C256.595764,104.946747 256.609406,104.275826 261.836273,98.816734 
	C262.564331,98.056305 262.630066,95.309830 261.998047,94.843269 
	C259.776184,93.203018 257.116089,92.156456 254.622299,90.884583 
	C254.331711,91.261459 254.041122,91.638336 253.750534,92.015213 
	C253.981522,92.691010 254.383331,93.360146 254.410004,94.043907 
	C254.477432,95.772911 254.376236,97.508492 254.342621,99.241432 
	C252.538696,98.489082 250.051529,98.231728 249.073151,96.881287 
	C247.039474,94.074158 248.046280,91.147064 250.737442,89.010666 
	C252.132401,87.903275 253.701553,87.015320 255.006714,84.723427 
	C253.754425,84.785545 252.299179,84.465401 251.296509,84.997711 
	C249.719528,85.834900 248.544312,87.400322 247.013885,88.363205 
	C245.885086,89.073418 244.461060,89.314384 243.168579,89.764427 
	C243.126663,88.086929 242.548950,86.163277 243.177994,84.794014 
	C243.970474,83.069000 245.988251,81.943733 247.011932,80.274292 
	C247.627975,79.269638 247.358170,77.721779 247.486450,76.418030 
	C246.363312,76.719894 245.037979,76.746429 244.164322,77.388016 
	C242.845779,78.356308 241.981186,79.942741 240.662643,80.911041 
	C239.546616,81.730629 238.060303,82.045982 236.737854,82.584480 
	C236.549591,80.916405 236.255829,79.249748 236.233444,77.579453 
	C236.226166,77.036072 237.129791,76.525963 237.257080,75.924515 
	C237.443161,75.045242 237.659653,73.786697 237.204346,73.266495 
	C236.754440,72.752495 235.370544,72.624725 234.594788,72.895660 
	C228.586426,74.994011 227.424103,74.482094 224.318695,67.676384 
z"/>
<path fill="#27A749" opacity="1.000000" stroke="none" 
	d="
M175.749176,39.177040 
	C175.202652,34.996532 177.961502,36.114056 179.845993,36.552483 
	C186.967957,38.209396 193.961456,40.681293 201.163910,41.642017 
	C206.418976,42.342979 210.024414,44.970901 213.771683,48.026314 
	C214.866821,48.919270 216.250793,49.615273 217.615356,49.988396 
	C220.635284,50.814171 224.043823,51.793205 223.483444,55.445988 
	C223.202240,57.279053 220.261353,58.704094 217.895447,60.895069 
	C219.271271,63.517818 221.188141,67.172012 223.105011,70.826202 
	C222.554459,71.292320 222.003906,71.758438 221.453354,72.224564 
	C218.447922,69.129074 215.908417,65.257858 212.333435,63.110619 
	C206.184555,59.417412 214.390579,54.304844 209.392044,49.998287 
	C208.097748,52.336044 207.038971,54.650684 205.600540,56.698654 
	C204.708694,57.968426 203.240616,58.833462 202.031189,59.880169 
	C201.507492,58.115673 200.638718,56.364292 200.570969,54.582462 
	C200.518219,53.195080 201.787643,51.787552 201.865921,50.355976 
	C201.934113,49.108624 201.158401,47.815128 200.755585,46.542023 
	C199.853622,47.430649 198.666168,48.174427 198.122986,49.245075 
	C197.465118,50.541759 197.413116,52.132820 196.991196,53.564747 
	C195.924698,57.184166 193.896622,57.323341 190.986053,55.382545 
	C187.557877,53.096592 183.889297,51.170464 180.468506,48.874462 
	C179.238052,48.048599 178.424377,46.601772 177.420502,45.438332 
	C178.701981,44.641033 179.897812,43.581181 181.291122,43.126625 
	C182.480026,42.738747 183.895874,43.046432 185.398972,42.192738 
	C182.253357,41.264111 179.107727,40.335484 175.749176,39.177040 
z"/>
<path fill="#ED1C24" opacity="1.000000" stroke="none" 
	d="
M39.208076,202.238190 
	C38.380207,201.771576 37.258392,200.931458 37.386417,200.383163 
	C37.935482,198.031601 38.852451,195.765945 39.674946,193.352737 
	C37.176159,191.406219 34.773006,189.534180 32.369850,187.662155 
	C32.426460,187.146042 32.483070,186.629929 32.539680,186.113815 
	C35.463722,186.113815 39.057789,187.157104 41.127975,185.827576 
	C43.304745,184.429611 44.023235,180.760971 45.848667,177.157242 
	C47.211666,180.552444 48.254658,183.150513 49.424664,186.064987 
	C52.332458,186.064987 55.425354,186.064987 60.023140,186.064987 
	C56.847355,189.065292 53.508602,190.830444 52.645786,193.420441 
	C51.760536,196.077789 53.296112,199.541595 54.020195,204.272949 
	C48.973995,198.902786 44.439659,196.246307 39.208076,202.238190 
z"/>
<path fill="#ED1C24" opacity="1.000000" stroke="none" 
	d="
M262.447479,237.827148 
	C263.377869,240.588562 264.104553,243.036285 264.831207,245.483994 
	C259.207123,241.203659 253.959839,238.786530 248.224152,246.560135 
	C250.601944,239.188873 250.105377,233.472534 242.218170,230.365463 
	C242.537994,230.025223 242.857834,229.684982 243.177658,229.344742 
	C246.187607,229.150909 249.871292,229.947113 252.018646,228.485764 
	C254.180511,227.014526 254.815094,223.299057 256.578918,219.602997 
	C258.137085,226.642456 261.145264,231.140137 269.073273,228.708908 
	C269.125732,229.129395 269.178223,229.549866 269.230682,229.970352 
	C266.901703,232.484711 264.572723,234.999084 262.447479,237.827148 
z"/>
<path fill="#ED1C24" opacity="1.000000" stroke="none" 
	d="
M288.470032,185.011917 
	C289.159393,185.929855 289.766174,187.604736 289.676056,187.643112 
	C282.959625,190.503265 284.342255,195.438065 286.493835,201.221588 
	C280.898682,197.182159 275.562988,194.595154 270.132324,201.968582 
	C273.250519,194.596786 271.655151,189.424240 264.267181,186.278488 
	C264.591187,185.957794 264.915192,185.637085 265.239197,185.316391 
	C268.244598,185.316391 271.250031,185.316391 274.263489,185.316391 
	C275.481293,181.939926 276.509888,179.088089 277.859680,175.345627 
	C280.754578,179.711502 280.444366,187.069366 288.470032,185.011917 
z"/>
<path fill="#ED1C24" opacity="1.000000" stroke="none" 
	d="
M67.366623,223.797363 
	C68.200333,225.968704 68.812065,227.813889 69.476051,229.816681 
	C72.572212,229.956238 75.610672,230.093185 78.649124,230.230133 
	C78.995323,230.523483 79.341515,230.816833 79.687714,231.110199 
	C72.463829,234.125748 70.895706,239.048859 74.533188,245.727707 
	C74.105270,245.841919 73.677353,245.956131 73.249435,246.070358 
	C70.942513,244.500732 68.635590,242.931122 66.007851,241.143234 
	C63.491146,242.758850 60.746181,244.520996 58.001217,246.283142 
	C57.716820,246.035522 57.432419,245.787888 57.148022,245.540268 
	C58.023266,242.681046 58.898514,239.821838 59.807266,236.853149 
	C57.552708,234.991776 55.254158,233.094070 52.955605,231.196365 
	C52.841637,230.745926 52.727669,230.295486 52.613701,229.845047 
	C60.896465,232.098770 64.101898,227.702286 65.507729,219.461594 
	C66.502190,221.897537 66.823410,222.684387 67.366623,223.797363 
z"/>
<path fill="#FFC908" opacity="1.000000" stroke="none" 
	d="
M194.919266,115.012314 
	C203.183121,111.750168 209.085266,115.087212 214.929581,121.070389 
	C213.563004,122.086159 212.208099,122.721489 211.400818,123.776039 
	C210.013641,125.588081 208.861816,127.606697 207.809662,129.641220 
	C206.803528,131.586731 206.614487,134.493942 205.084625,135.532928 
	C199.497971,139.327011 193.593414,142.689224 187.632645,145.885971 
	C181.775375,149.027237 179.633286,153.977982 182.386810,160.000946 
	C184.111115,163.772644 186.004562,167.545258 188.388763,170.916763 
	C191.221344,174.922348 194.680374,175.006058 197.169647,170.852463 
	C199.418381,167.100220 200.407547,162.607651 202.118439,158.511017 
	C202.757828,156.980042 203.867355,155.645401 204.762512,154.221252 
	C206.187729,155.410263 208.669113,156.440598 208.875275,157.812775 
	C211.008041,172.007980 219.890686,184.798203 217.516922,199.969543 
	C217.078613,202.770981 218.369522,205.827301 218.765381,208.778992 
	C219.239731,212.315765 219.610138,215.866470 220.086441,219.930908 
	C216.153610,219.716080 212.752319,218.563492 210.480881,219.689697 
	C208.388000,220.727371 207.509048,224.213409 205.515503,227.608505 
	C204.691269,224.901535 203.967728,223.138260 203.628754,221.303925 
	C202.300064,214.113647 201.438965,206.816620 199.713089,199.727493 
	C198.641663,195.326538 196.870438,190.856369 194.335907,187.155014 
	C193.117722,185.375977 189.308472,184.507401 186.863388,184.803268 
	C185.673218,184.947281 184.592865,188.631332 184.050034,190.856171 
	C183.296539,193.944504 184.088242,196.534332 178.620361,196.918716 
	C174.799240,197.187363 170.942581,201.416138 165.843796,200.469406 
	C165.473480,200.400635 164.273163,203.801636 163.763916,205.672470 
	C162.343323,210.891479 161.216339,211.332123 156.685837,208.574326 
	C155.349121,207.760635 153.562317,206.983521 152.117508,207.181274 
	C147.686157,207.787842 143.351593,209.174500 138.914810,209.633591 
	C137.061157,209.825394 133.991531,208.993866 133.301346,207.673111 
	C131.296173,203.835907 129.033829,199.523773 129.006104,195.383636 
	C128.938843,185.345627 127.933533,175.876801 122.204353,167.241486 
	C119.724670,163.503983 120.271988,159.445465 122.583595,155.431519 
	C126.921242,147.899506 125.714088,145.742920 117.341942,142.925064 
	C114.476280,141.960571 110.194328,139.706589 109.986557,137.688843 
	C109.706299,134.967056 112.522774,131.757126 114.398811,129.023239 
	C117.049606,125.160301 120.023201,121.566971 125.519463,121.821625 
	C125.998123,121.843796 127.168686,119.912231 126.960976,119.193695 
	C126.455498,117.445183 125.731728,115.292946 124.370796,114.351593 
	C121.109047,112.095459 117.443596,110.416946 113.916306,108.552147 
	C108.607399,105.745461 108.061699,103.701004 111.524590,98.775421 
	C113.272758,96.288849 115.386711,94.448601 115.196884,90.597076 
	C115.010933,86.823929 118.891670,87.583206 120.665504,89.176117 
	C122.938652,91.217400 124.725578,91.253181 127.349457,90.254578 
	C130.740372,88.964027 133.034988,90.384727 134.274078,93.893509 
	C134.912781,95.702164 135.818787,97.876251 137.285904,98.787903 
	C138.472031,99.524948 141.196518,99.254578 142.337204,98.324997 
	C145.958847,95.373604 148.521118,95.778511 149.588943,100.400841 
	C150.291367,103.441414 150.590714,106.718689 150.300186,109.817749 
	C149.478180,118.586678 155.458405,121.520882 162.552032,121.025307 
	C168.842972,120.585808 176.155777,121.274361 180.301422,114.079063 
	C180.823776,113.172440 184.244446,113.763084 186.295364,113.952019 
	C189.061218,114.206825 191.800980,114.744873 194.919266,115.012314 
z"/>
<path fill="#48714C" opacity="1.000000" stroke="none" 
	d="
M55.020752,112.990997 
	C53.264843,112.291878 51.497185,111.602493 48.283215,110.349052 
	C51.732689,108.430008 53.780254,106.670670 56.108536,106.137741 
	C59.805248,105.291603 60.875607,103.159538 61.103691,99.774330 
	C61.187862,98.525063 62.173969,97.279678 62.968502,96.193268 
	C63.095387,96.019768 65.023048,96.692001 65.024422,96.978493 
	C65.030807,98.309540 65.034912,99.901375 64.340981,100.927032 
	C62.092464,104.250397 60.987705,108.734886 56.015881,109.587128 
	C55.481457,109.678734 55.231846,111.431931 54.920349,112.719574 
	C54.990578,113.024780 55.009003,113.000740 55.020752,112.990997 
z"/>
<path fill="#47704C" opacity="1.000000" stroke="none" 
	d="
M198.023895,268.019043 
	C198.622040,267.531250 199.291000,267.129700 199.959961,266.728149 
	C200.075958,266.909515 200.191956,267.090851 200.307953,267.272186 
	C199.762634,267.563934 199.217331,267.855652 198.453583,268.213104 
	C198.235138,268.278809 198.094711,268.105316 198.023895,268.019043 
z"/>
</svg>